<svg width="683" height="683" viewBox="0 0 683 683" fill="none" xmlns="http://www.w3.org/2000/svg">
<path d="M310 44.1333C278 47.4666 237.2 59.2 210.667 72.6666C194.8 80.6666 191.067 97.2 202.8 108.267C210.8 115.867 216.933 116.267 230.933 110C307.067 76.4 384.267 76.9333 454.667 111.867C545.467 156.933 600.8 249.867 596.933 351.333C593.2 451.467 543.6 540.533 476.533 567.867C437.733 583.6 400.8 579.2 384.267 556.667C371.333 539.2 363.733 518.133 363.467 499.467L363.333 488.933L371.867 487.2C430.4 475.067 476.267 428.267 488.133 368.667C489.6 361.333 490 342.8 490 282.4C490 206.8 490 205.467 487.2 201.867C485.733 199.867 482.8 196.933 480.8 195.467C477.333 192.8 475.467 192.667 437.333 192.667C399.2 192.667 397.333 192.8 393.867 195.467C386.8 200.667 384.667 204.933 384.667 213.333C384.667 221.733 386.8 226 393.867 231.2C397.2 233.733 399.733 234 422.8 234.4L448.133 234.8L447.733 297.067C447.333 349.733 446.933 360.4 445.067 366.667C436.533 395.6 422 415.733 399.067 430.667C380.933 442.533 364.533 447.333 341.333 447.333C318.133 447.333 301.733 442.533 283.6 430.667C260.667 415.733 246.133 395.6 237.6 366.667C235.733 360.4 235.333 349.733 234.933 297.067L234.533 234.8L259.867 234.4C282.933 234 285.467 233.733 288.8 231.2C295.867 226 298 221.733 298 213.333C298 204.933 295.867 200.667 288.8 195.467C285.333 192.8 283.467 192.667 245.333 192.667C207.2 192.667 205.333 192.8 201.867 195.467C199.867 196.933 196.933 199.867 195.467 201.867C192.667 205.467 192.667 206.8 192.667 282.4C192.667 365.467 192.8 367.467 200.133 388.933C216.8 438.533 260 476.933 310.667 487.2L319.333 488.933L321.6 506.133C324.4 526.4 327.467 539.333 333.2 554.267C342.267 577.733 359.867 597.733 380.4 607.867C398.133 616.667 405.2 618 431.333 617.867C451.333 617.867 455.733 617.333 468.4 614.267C476.4 612.267 487.467 608.8 493.067 606.533C566.533 577.2 620.533 495.333 636.933 388.4C640.4 365.867 640 316.4 636.267 294.667C630.667 261.467 623.067 238.133 608.667 208.667C572.8 135.6 506.533 79.4666 427.733 55.4666C392.533 44.6666 346.667 40.2666 310 44.1333Z" fill="#242424"/>
<path d="M134 128.533C125.2 132.4 100.533 162.667 84.6667 189.067C37.6001 267.6 29.8667 366.4 64.0001 451.867C67.8667 461.6 74.5334 475.733 78.9334 483.467L86.6667 497.467L82.1334 503.067C76.1334 510.533 70.0001 522.933 67.2001 533.467C64.2667 544.8 64.2667 564.667 67.2001 576C76.8001 611.867 108 637.2 145.333 639.6C182.267 641.867 217.733 618 230.267 582.4C234.8 569.467 235.867 548.933 232.8 535.333C227.067 511.333 209.867 489.467 188 478.8C169.333 469.733 151.733 467.333 132.667 471.333C127.6 472.4 122.933 473.333 122.4 473.333C120.933 473.333 103.2 436.133 99.4667 425.333C84.4001 380.267 81.4667 334.4 90.9334 288.667C99.3334 247.2 120.8 204.8 149.733 171.733C156 164.533 161.867 156.533 162.667 153.867C168 137.6 149.867 121.6 134 128.533ZM167.333 516.133C175.733 520.133 183.733 528.133 188 536.667C190.667 542.133 191.333 545.333 191.333 554.667C191.2 564.933 190.8 566.8 186.8 574.4C181.733 583.733 177.467 587.867 167.467 593.067C161.733 596 158.933 596.533 149.333 596.533C140 596.667 136.8 596 131.333 593.333C96.6667 576.267 99.6001 527.333 136 514.133C144.4 511.067 158.667 512 167.333 516.133Z" fill="#242424"/>
</svg>
